<?xml version="1.0" encoding="utf-8"?>
<!-- Generator: Adobe Illustrator 28.1.0, SVG Export Plug-In . SVG Version: 6.00 Build 0)  -->
<svg version="1.1" id="gn-0" xmlns:svgjs="http://svgjs.dev/svgjs"
	 xmlns="http://www.w3.org/2000/svg" xmlns:xlink="http://www.w3.org/1999/xlink" x="0px" y="0px" viewBox="0 0 186.3 161"
	 style="enable-background:new 0 0 186.3 161;" xml:space="preserve">
<style type="text/css">
	.st0{fill:#31C48D;}
	.st1{display:none;fill:none;}
</style>
<g transform="matrix(1,0,0,1,-0.6060606060606801,0.19224437240346504)">
	<g id="tight-bounds" transform="matrix(1,0,0,1,0.24000000000003752,-0.07642012319143987)">
		<g>
			<g id="text-0">
				<g>
					<path class="st0" d="M138.7,1.6L138.7,1.6L138.7,1.6l-0.8-1.7H46.3L0.4,80.6l45.7,80.7h91.6l45.9-80.7L138.7,1.6z M57,28.8
						l-49,46.9L46.9,7L57,28.8z M135.3,6.8l13.4,74.8L64.5,29.9L135.3,6.8z M61.6,33l85.9,52.8l-85.9,48.8V33z M148.5,90l-15.1,64.6
						l-68.3-17L148.5,90z M57.4,133L7.9,81.6L57.4,34V133z M56.7,138.4l-9.6,16.1L11.3,91.3L56.7,138.4z M60.5,140.5l65.8,16.6H50.5
						L60.5,140.5z M153.4,87.5l24.3-5.2l-39.4,69.6L153.4,87.5z M177.3,78.3l-23.9,5.2L141,14.1L177.3,78.3z M60.5,26.7L50,4.1h80.1
						L60.5,26.7z"/>
				</g>
			</g>
		</g>
		<rect x="-811.4" y="-0.1" class="st1" width="995" height="161.4"/>
	</g>
</g>
</svg>
