<?xml version="1.0" encoding="utf-8"?>
<!-- Generator: Adobe Illustrator 28.1.0, SVG Export Plug-In . SVG Version: 6.00 Build 0)  -->
<svg version="1.1" id="Layer_1" xmlns="http://www.w3.org/2000/svg" xmlns:xlink="http://www.w3.org/1999/xlink" x="0px" y="0px"
	 viewBox="0 0 219.4 160.9" style="enable-background:new 0 0 219.4 160.9;" xml:space="preserve">
<style type="text/css">
	.st0{fill:#B5E5E3;}
	.st1{fill:#59C5C7;}
	.st2{fill:#FFFFFF;}
</style>
<path class="st0" d="M27,40.1l83.6,14.1l34.5,60.1l-87.5,19.7C57.5,133.9,27,40.1,27,40.1z M3.9,31.8l33.5,111.6l115.1-13.7
	l2.1-17.4l-42-75.6L22.3,23.9L3.9,31.8L3.9,31.8z"/>
<polygon class="st1" points="112.7,36.8 22.2,23.9 26.9,40 110.5,54.1 145,114.2 154.6,112.4 "/>
<path class="st2" d="M208.4,93.6h6.2l-7.7-10l7.4-9.6H208l-4.2,5.5l-4.2-5.5h-6.2l7.4,9.6L193,93.6h6.2l4.6-5.9L208.4,93.6
	L208.4,93.6z M188.4,83.8c0,3.2-2.3,5.2-5.2,5.2c-3,0-5.2-2.1-5.2-5.2c0-3.2,2.3-5.2,5.2-5.2C186.1,78.6,188.4,80.7,188.4,83.8
	 M172.6,83.8c0,6.1,4.5,10.3,10.6,10.3s10.6-4.2,10.6-10.3c0-6.1-4.5-10.3-10.6-10.3S172.6,77.7,172.6,83.8 M165.5,83.8
	c0,3.2-2.2,5.3-5.1,5.3c-2.9,0-5.2-2.1-5.2-5.3c0-3.2,2.2-5.3,5.2-5.3C163.3,78.5,165.5,80.6,165.5,83.8 M150.2,66.1v27.5h5.2v-2.8
	c1.4,2,3.7,3.3,6.5,3.3c4.9,0,9-3.7,9-10.4s-4.1-10.4-8.9-10.4c-3.1,0-5.3,1.5-6.6,3.4V66.1H150.2L150.2,66.1z M140.8,66.1v10.7
	c-1.3-1.9-3.5-3.4-6.6-3.4c-4.8,0-8.9,3.7-8.9,10.4s4.1,10.4,9,10.4c2.9,0,5.1-1.3,6.5-3.3v2.8h5.2V66.1H140.8z M135.8,78.5
	c2.9,0,5.1,2,5.1,5.3c0,3.3-2.2,5.3-5.1,5.3c-2.9,0-5.2-2.1-5.2-5.3S132.8,78.5,135.8,78.5 M109.9,76.8V74h-5v19.7h5.2v-9.4
	c0-3.5,1.3-5.7,4.3-5.7c2.2,0,3.6,1.3,3.6,4.3v10.9h5.3V81.5c0-5-2.4-7.9-7-7.9C113.4,73.5,111.3,74.9,109.9,76.8 M83.7,78l3.9,2.8
	c0.7-1.9,2.9-2.5,4.9-2.5c2.3,0,3.4,0.8,3.4,2v0.3c0,0.5-0.3,0.7-1,0.8l-5.4,0.5c-3.6,0.4-6.3,2.6-6.3,6.2c0,3.6,2.8,6.1,6.6,6.1
	c3.1,0,5-1.5,6.1-3.1v2.7h5.2V81.5c0-5.5-2.9-8-8.6-8C88.2,73.5,85,75,83.7,78 M95.9,85.7c0,2.2-1.8,4.1-4.5,4.1
	c-1.8,0-2.8-0.8-2.8-2.1c0-1.1,0.8-1.9,2.4-2.2l4.9-0.6L95.9,85.7L95.9,85.7z M65,79.8c0,4.3,3.6,5.6,6.5,6.2c3.3,0.7,4.4,0.9,4.4,2
	s-1.2,1.5-2.6,1.5c-2.8,0-4.9-1-6.2-2.6l-3,3.9c1.7,2.2,5,3.3,8.7,3.3c5.2,0,8.5-1.9,8.5-6.4c0-4.1-2.9-5.4-6.3-6.2
	c-3.5-0.7-4.6-1-4.6-2c0-0.9,0.9-1.4,2.5-1.4c2.1,0,4.2,0.8,5.3,2l2.9-3.8c-1.7-1.8-4.3-2.9-7.8-2.9C68.2,73.5,65,75.8,65,79.8"/>
<path class="st2" d="M91,61.6v-2.2h-8.4v2.2h3.1v6.9h2.2v-6.9H91z M78.7,68.5H81v-9.1h-2.2V68.5z M67.2,64.1l2.5,4.4h1.8l2.5-4.4
	v4.4h2.2v-9.1h-2.1l-3.5,6.2l-3.5-6.2h-2.1v9.1h2.2L67.2,64.1L67.2,64.1z"/>
<path class="st2" d="M208.9,102.6c-0.3-0.7-1-1.2-2-1.2s-1.6,0.4-1.9,1v-0.9h-1.3v6.1h1.3v-2.9c0-1.2,0.4-2.1,1.6-2.1
	c0.8,0,1.3,0.5,1.3,1.5v3.5h1.3v-2.9c0-1.2,0.4-2.1,1.6-2.1c0.8,0,1.3,0.5,1.3,1.5v3.5h1.3v-3.6c0-1.6-0.8-2.6-2.3-2.6
	C210,101.5,209.4,102,208.9,102.6 M196.7,102.9l1.1,0.7c0.2-0.7,0.8-0.9,1.6-0.9c0.8,0,1.2,0.3,1.2,0.8v0.1c0,0.2-0.1,0.3-0.4,0.3
	l-1.7,0.2c-1.1,0.1-2,0.8-2,1.9s0.8,1.9,2.1,1.9c0.9,0,1.6-0.4,2-1v0.8h1.3v-3.9c0-1.6-0.8-2.4-2.6-2.4
	C197.9,101.5,197,102,196.7,102.9L196.7,102.9z M200.6,105.3c0,0.7-0.6,1.4-1.6,1.4c-0.7,0-1-0.3-1-0.8c0-0.4,0.3-0.7,0.9-0.8
	l1.8-0.2L200.6,105.3L200.6,105.3z M193.3,102.6v-1H192v6.1h1.3v-2.8c0-1.3,0.5-2.1,1.7-2.1c0.2,0,0.5,0,0.7,0.1v-1.4
	c-0.2,0-0.4-0.1-0.6-0.1C194.2,101.5,193.6,101.9,193.3,102.6L193.3,102.6z M183.7,104.6c0,2,1.2,3.2,2.9,3.2c0.9,0,1.7-0.4,2.1-0.9
	v0.5c0,0.9-0.4,1.8-1.8,1.8c-0.9,0-1.5-0.4-1.9-1l-0.8,1c0.6,0.7,1.3,1.2,2.7,1.2c2.5,0,3.1-1.5,3.1-3v-5.7h-1.3v0.8
	c-0.3-0.5-1.1-1-2-1C185,101.5,183.7,102.7,183.7,104.6 M188.7,104.7c0,1.2-0.7,2-1.8,2c-1.1,0-1.9-0.8-1.9-2c0-1.2,0.8-2,1.9-2
	C188,102.7,188.7,103.5,188.7,104.7 M181.3,104.7c0,1.1-0.8,1.9-1.9,1.9s-1.9-0.8-1.9-1.9c0-1.1,0.8-1.9,1.9-1.9
	S181.3,103.5,181.3,104.7 M176.1,104.7c0,1.9,1.4,3.2,3.2,3.2c1.9,0,3.2-1.3,3.2-3.2s-1.4-3.2-3.2-3.2
	C177.5,101.5,176.1,102.8,176.1,104.7 M173.1,102.6v-1h-1.3v6.1h1.3v-2.8c0-1.3,0.5-2.1,1.7-2.1c0.2,0,0.5,0,0.7,0.1v-1.4
	c-0.2,0-0.4-0.1-0.6-0.1C174,101.5,173.4,101.9,173.1,102.6L173.1,102.6z M169.1,102.1c0,0.9-0.7,1.5-1.6,1.5h-1.8v-3.1h1.8
	C168.4,100.6,169.1,101.2,169.1,102.1 M164.4,99.2v8.6h1.4V105h1.8c1.7,0,2.9-1.2,2.9-2.9c0-1.7-1.2-2.9-2.9-2.9L164.4,99.2
	L164.4,99.2z M157.7,99.2v3.3c-0.5-0.6-1.1-1-2.1-1c-1.6,0-2.8,1.2-2.8,3.2c0,2,1.3,3.2,2.9,3.2c1,0,1.7-0.4,2.1-1v0.9h1.3v-8.6
	L157.7,99.2L157.7,99.2z M156,102.7c1.1,0,1.8,0.8,1.8,2s-0.7,2-1.8,2c-1.1,0-1.8-0.8-1.8-2S154.9,102.7,156,102.7 M147.2,102.5
	v-0.8h-1.3v6.1h1.3v-2.9c0-1.2,0.4-2.1,1.6-2.1c0.8,0,1.3,0.5,1.3,1.5v3.5h1.3V104c0-1.6-0.7-2.6-2.2-2.6
	C148.4,101.5,147.6,101.8,147.2,102.5L147.2,102.5z M142.8,101.6v2.9c0,1.2-0.4,2.1-1.5,2.1c-0.9,0-1.2-0.6-1.2-1.5v-3.5h-1.4v3.7
	c0,1.5,0.6,2.6,2.2,2.6c0.9,0,1.5-0.4,2-1v0.9h1.3v-6.1L142.8,101.6L142.8,101.6z M131.7,99.2v8.6h1.4v-3.6h4v-1.4h-4v-2.2h4v-1.4
	L131.7,99.2L131.7,99.2z M122.1,102.5v-0.8h-1.3v6.1h1.3v-2.9c0-1.2,0.4-2.1,1.6-2.1c0.8,0,1.3,0.5,1.3,1.5v3.5h1.3V104
	c0-1.6-0.7-2.6-2.2-2.6C123.3,101.5,122.6,101.8,122.1,102.5L122.1,102.5z M118,104.7c0,1.1-0.8,1.9-1.9,1.9c-1.1,0-1.9-0.8-1.9-1.9
	c0-1.1,0.8-1.9,1.9-1.9C117.2,102.7,118,103.5,118,104.7 M112.9,104.7c0,1.9,1.4,3.2,3.2,3.2s3.2-1.3,3.2-3.2s-1.4-3.2-3.2-3.2
	S112.9,102.8,112.9,104.7 M110.1,107.7h1.3v-6.1h-1.3V107.7z M109.8,99.8c0,0.5,0.4,0.9,0.9,0.9c0.5,0,0.9-0.4,0.9-0.9
	c0-0.5-0.4-0.9-0.9-0.9C110.2,98.9,109.8,99.3,109.8,99.8 M108.3,107.6v-1.2c-0.4,0.1-0.6,0.1-0.9,0.1c-0.5,0-0.7-0.2-0.7-0.7v-3.1
	h1.6v-1.1h-1.6v-1.6h-1.3v1.6h-1.2v1.1h1.2v3.2c0,1.3,0.6,1.8,1.7,1.8C107.5,107.8,107.9,107.7,108.3,107.6 M97.8,102.9l1.1,0.7
	c0.2-0.7,0.8-0.9,1.6-0.9c0.8,0,1.2,0.3,1.2,0.8v0.1c0,0.2-0.1,0.3-0.4,0.3l-1.7,0.2c-1.1,0.1-2,0.8-2,1.9s0.8,1.9,2.1,1.9
	c0.9,0,1.6-0.4,2-1v0.8h1.3v-3.9c0-1.6-0.8-2.4-2.6-2.4C99,101.5,98.1,102,97.8,102.9L97.8,102.9z M101.6,105.3
	c0,0.7-0.6,1.4-1.6,1.4c-0.7,0-1-0.3-1-0.8c0-0.4,0.3-0.7,0.9-0.8l1.8-0.2C101.6,104.9,101.6,105.3,101.6,105.3z M94.2,107.7
	l2.7-6.1h-1.5l-1.7,4.2l-1.7-4.2h-1.5l2.7,6.1H94.2L94.2,107.7z M88.6,104.7c0,1.1-0.8,1.9-1.9,1.9c-1.1,0-1.9-0.8-1.9-1.9
	c0-1.1,0.8-1.9,1.9-1.9C87.9,102.7,88.6,103.5,88.6,104.7 M83.5,104.7c0,1.9,1.4,3.2,3.2,3.2c1.9,0,3.2-1.3,3.2-3.2
	s-1.4-3.2-3.2-3.2C84.9,101.5,83.5,102.8,83.5,104.7 M78,102.5v-0.8h-1.3v6.1H78v-2.9c0-1.2,0.4-2.1,1.6-2.1c0.8,0,1.3,0.5,1.3,1.5
	v3.5h1.3V104c0-1.6-0.7-2.6-2.2-2.6C79.1,101.5,78.4,101.8,78,102.5L78,102.5z M70.4,102.5v-0.8h-1.3v6.1h1.3v-2.9
	c0-1.2,0.4-2.1,1.6-2.1c0.8,0,1.3,0.5,1.3,1.5v3.5h1.3V104c0-1.6-0.7-2.6-2.2-2.6C71.5,101.5,70.8,101.8,70.4,102.5L70.4,102.5z
	 M65.7,107.7h1.4v-8.6h-1.4V107.7z"/>
</svg>
