<?xml version="1.0" encoding="utf-8"?>
<!-- Generator: Adobe Illustrator 28.1.0, SVG Export Plug-In . SVG Version: 6.00 Build 0)  -->
<svg version="1.1" id="svg3092" xmlns:svg="http://www.w3.org/2000/svg"
	 xmlns="http://www.w3.org/2000/svg" xmlns:xlink="http://www.w3.org/1999/xlink" x="0px" y="0px" viewBox="0 0 298 246.6"
	 style="enable-background:new 0 0 298 246.6;" xml:space="preserve">
<style type="text/css">
	.st0{fill-rule:evenodd;clip-rule:evenodd;fill:#D71A21;}
</style>
<path id="path2653" class="st0" d="M154.3,73.7c43-2.7,77.4-16.2,76.8-31c-0.7-14.7-36.1-23.1-79-20.8c-43.1,2.7-77.5,16.2-76.8,31
	C75.8,67.7,111.2,76.5,154.3,73.7 M7.4,47.8c0-15,62.8-27.6,140.1-27.6c77.5,0,140.3,12.7,140.3,27.6S225,75.2,147.5,75.2
	C70.2,75.2,7.4,62.7,7.4,47.8"/>
<path id="path2657" class="st0" d="M168.3,186V21.7l-37.4,52.7V240L168.3,186z"/>
</svg>
